<?xml version="1.0" encoding="iso-8859-1"?>
<!-- Uploaded to: SVG Repo, www.svgrepo.com, Generator: SVG Repo Mixer Tools -->
<svg height="800px" width="800px" version="1.1" id="Layer_1" xmlns="http://www.w3.org/2000/svg" xmlns:xlink="http://www.w3.org/1999/xlink" 
	 viewBox="0 0 512 512" xml:space="preserve">
<path style="fill:#FDD042;" d="M56.569,208.311h398.863c4.789,0,8.671,3.882,8.671,8.671v286.141c0,4.789-3.882,8.671-8.671,8.671
	H56.569c-4.789,0-8.671-3.882-8.671-8.671V216.982C47.898,212.192,51.78,208.311,56.569,208.311z"/>
<path style="fill:#F2C127;" d="M73.911,503.123V216.982c0-4.789,3.882-8.671,8.671-8.671H56.569c-4.789,0-8.671,3.882-8.671,8.671
	v286.141c0,4.789,3.882,8.671,8.671,8.671h26.013C77.792,511.794,73.911,507.911,73.911,503.123z"/>
<g>
	<path style="fill:#FDDD85;" d="M360.052,208.311h95.38c4.789,0,8.671,3.882,8.671,8.671v286.141c0,4.789-3.882,8.671-8.671,8.671
		h-95.38V208.311z"/>
	<path style="fill:#FDDD85;" d="M308.026,338.375H8.68c-6.135,0-10.329-6.195-8.051-11.891l45.089-112.722
		c1.317-3.292,4.506-5.451,8.051-5.451h306.283L308.026,338.375z"/>
</g>
<path style="fill:#FDE5A2;" d="M503.32,338.375h-91.244l-52.026-130.064h98.181c3.545,0,6.734,2.159,8.051,5.451l45.089,112.722
	C513.65,332.179,509.455,338.375,503.32,338.375z"/>
<path style="fill:#88898E;" d="M438.09,477.11h-52.026c-4.789,0-8.671-3.882-8.671-8.671v-26.013c0-4.789,3.882-8.671,8.671-8.671
	h52.026c4.789,0,8.671,3.882,8.671,8.671v26.013C446.761,473.227,442.879,477.11,438.09,477.11z"/>
<path style="fill:#E1A527;" d="M316.697,407.742H91.253c-4.789,0-8.671-3.882-8.671-8.671v-34.684c0-4.789,3.882-8.671,8.671-8.671
	h225.444c4.789,0,8.671,3.882,8.671,8.671v34.684C325.368,403.86,321.486,407.742,316.697,407.742z"/>
<g>
	<path style="fill:#606268;" d="M91.253,477.11c-4.789,0-8.671-3.882-8.671-8.671v-26.013c0-4.789,3.882-8.671,8.671-8.671
		s8.671,3.882,8.671,8.671v26.013C99.924,473.227,96.041,477.11,91.253,477.11z"/>
	<path style="fill:#606268;" d="M117.266,477.11c-4.789,0-8.671-3.882-8.671-8.671v-26.013c0-4.789,3.882-8.671,8.671-8.671
		s8.671,3.882,8.671,8.671v26.013C125.937,473.227,122.054,477.11,117.266,477.11z"/>
	<path style="fill:#606268;" d="M160.62,477.11c-4.789,0-8.671-3.882-8.671-8.671v-26.013c0-4.789,3.882-8.671,8.671-8.671
		c4.789,0,8.671,3.882,8.671,8.671v26.013C169.291,473.227,165.409,477.11,160.62,477.11z"/>
	<path style="fill:#606268;" d="M186.633,477.11c-4.789,0-8.671-3.882-8.671-8.671v-26.013c0-4.789,3.882-8.671,8.671-8.671
		c4.789,0,8.671,3.882,8.671,8.671v26.013C195.304,473.227,191.422,477.11,186.633,477.11z"/>
	<path style="fill:#606268;" d="M212.646,477.11c-4.789,0-8.671-3.882-8.671-8.671v-26.013c0-4.789,3.882-8.671,8.671-8.671
		c4.789,0,8.671,3.882,8.671,8.671v26.013C221.317,473.227,217.435,477.11,212.646,477.11z"/>
	<path style="fill:#606268;" d="M247.33,477.11c-4.789,0-8.671-3.882-8.671-8.671v-26.013c0-4.789,3.882-8.671,8.671-8.671
		c4.789,0,8.671,3.882,8.671,8.671v26.013C256.001,473.227,252.118,477.11,247.33,477.11z"/>
	<path style="fill:#606268;" d="M273.342,477.11c-4.789,0-8.671-3.882-8.671-8.671v-26.013c0-4.789,3.882-8.671,8.671-8.671
		s8.671,3.882,8.671,8.671v26.013C282.013,473.227,278.131,477.11,273.342,477.11z"/>
	<path style="fill:#606268;" d="M316.697,477.11c-4.789,0-8.671-3.882-8.671-8.671v-26.013c0-4.789,3.882-8.671,8.671-8.671
		c4.789,0,8.671,3.882,8.671,8.671v26.013C325.368,473.227,321.486,477.11,316.697,477.11z"/>
	<path style="fill:#606268;" d="M435.55,384.268l-26.013-26.013c-3.386-3.385-8.876-3.385-12.262,0l-26.013,26.013
		c-3.34,3.342-3.342,8.922,0,12.263c3.34,3.34,8.921,3.339,12.262,0l11.21-11.212v22.421c0,4.789,3.882,8.671,8.671,8.671
		s8.671-3.882,8.671-8.671v-22.421l11.21,11.212c3.561,3.559,9.568,3.274,12.794-0.584
		C438.922,392.552,438.675,387.395,435.55,384.268z"/>
</g>
<circle style="fill:#6AC8B7;" cx="255.998" cy="95.587" r="95.38"/>
<path style="fill:#2DB59F;" d="M273.342,173.627c-52.677,0-95.38-42.703-95.38-95.38c0-21.918,7.398-42.105,19.826-58.212
	C175.184,37.476,160.62,64.83,160.62,95.589c0,52.677,42.703,95.38,95.38,95.38c30.759,0,58.113-14.564,75.554-37.168
	C315.447,166.229,295.26,173.627,273.342,173.627z"/>
<path style="fill:#FFFFFF;" d="M242.994,134.608c-3.329,0-6.657-1.27-9.197-3.81l-26.013-26.013c-5.079-5.08-5.079-13.314,0-18.394
	c5.08-5.079,13.314-5.079,18.394,0l16.816,16.816l42.829-42.829c5.08-5.079,13.314-5.079,18.394,0c5.079,5.08,5.079,13.314,0,18.394
	l-52.026,52.026C249.651,133.338,246.323,134.608,242.994,134.608z"/>
</svg>